<?xml version="1.0" encoding="UTF-8" standalone="no"?>
<!-- Created with Inkscape (http://www.inkscape.org/) -->

<svg
   xmlns:dc="http://purl.org/dc/elements/1.1/"
   xmlns:cc="http://creativecommons.org/ns#"
   xmlns:rdf="http://www.w3.org/1999/02/22-rdf-syntax-ns#"
   xmlns:svg="http://www.w3.org/2000/svg"
   xmlns="http://www.w3.org/2000/svg"
   xmlns:sodipodi="http://sodipodi.sourceforge.net/DTD/sodipodi-0.dtd"
   xmlns:inkscape="http://www.inkscape.org/namespaces/inkscape"
   width="343pt"
   height="340pt"
   id="svg3122"
   version="1.1"
   inkscape:version="0.48.4 r9939"
   sodipodi:docname="Neues Dokument 2">
  <defs
     id="defs3124" />
  <sodipodi:namedview
     pagecolor="#ffffff"
     bordercolor="#666666"
     borderopacity="1.0"
     inkscape:pageopacity="0.0"
     inkscape:pageshadow="2"
     inkscape:zoom="4.5254834"
     inkscape:cx="210"
     inkscape:cy="210"
     inkscape:document-units="pt"
     inkscape:current-layer="layer1"
     id="namedview3126"
     showgrid="false"
     inkscape:window-width="1301"
     inkscape:window-height="744"
     inkscape:window-x="65"
     inkscape:window-y="24"
     inkscape:window-maximized="1" />
  <metadata
     id="metadata3128">
    <rdf:RDF>
      <cc:Work
         rdf:about="">
        <dc:format>image/svg+xml</dc:format>
        <dc:type
           rdf:resource="http://purl.org/dc/dcmitype/StillImage" />
        <dc:title></dc:title>
      </cc:Work>
    </rdf:RDF>
  </metadata>
  <g
     inkscape:label="Layer 1"
     inkscape:groupmode="layer"
     id="layer1">
    <polyline
       transform="translate(101.279,-297.0475)"
       stroke-miterlimit="10"
       points="88.171,475.688 92.794,471.642      91.35,475.688 98.14,469.187 94.347,474.966 104.063,466.441 97.273,474.966 107.675,466.441 99.729,475.688 112.443,463.407      102.763,475.688 116.055,463.407 105.219,474.966 118.511,463.407 108.108,474.966 121.4,463.407 111.143,474.966      124.29,463.407 114.032,474.966 127.613,463.407 117.211,474.966 131.658,463.407 121.256,474.966 134.692,463.407      124.29,474.966 137.727,463.407 126.457,474.966 140.308,463.407 130.069,474.966 141.771,463.407 132.669,474.966      141.771,466.151 134.981,474.966 141.771,469.187 137.727,474.966 141.771,471.786 140.308,474.966    "
       id="polyline887"
       style="fill:none;stroke:#e30613;stroke-width:0.5;stroke-miterlimit:10" />
  </g>
</svg>
